#!OML:ASF X:\für Bonn\!DataBase\2005_08_12_Daniel\c3d\Daniel.ASF
:FULLY-SPECIFIED
:DEGREES
231
root 20.6924 1.45457 0.0409159 -1262.16 258.583 91.3615
lowerback 55.6332 0.00903128 10.6734
upperback 17.2217 2.31209 -1.38967
thorax -1.16553 0.250103 -7.09256
lowerneck 12.2266 17.4579 4.31118
upperneck 8.27852 23.5307 -8.04076
head 2.35642 11.6243 -3.45643
rclavicle -2.38542e-014 7.63333e-014
rhumerus -359.477 38.0292 280.693
rradius 73.4738
rwrist -6.41402
rhand -9.84348 739.918
rfingers 7.12502
rthumb 16.1344 710.57
lclavicle -2.38542e-014 7.63333e-014
lhumerus -391.845 -7.7645 -274.777
lradius 91.4354
lwrist 13.8094
lhand -40.8657 -728.488
lfingers 7.12502
lthumb -13.8022 21.0339
rfemur -43.6258 -42.6398 24.0856
rtibia 93.8894
rfoot 396.862 1.02334
rtoes 13.8926
lfemur -54.5273 49.5096 -37.5151
ltibia 129.846
lfoot 18.2568 -5.40457
ltoes 6.29616
232
root 20.7208 1.45113 0.0356842 -1263.12 258.737 91.6983
lowerback 55.2616 0.0423055 10.3166
upperback 17.3274 2.11415 -1.49662
thorax -1.08063 0.143327 -6.98919
lowerneck 12.4488 17.4523 4.4793
upperneck 8.30278 23.5453 -8.14685
head 2.3679 11.6366 -3.53288
rclavicle 8.66701e-014 -1.30403e-013
rhumerus -360.593 37.7033 279.66
rradius 73.8778
rwrist -6.51649
rhand -9.83158 739.884
rfingers 7.12502
rthumb 16.1458 710.536
lclavicle 8.66701e-014 -1.30403e-013
lhumerus -389.79 -7.17497 -274.75
lradius 91.2714
lwrist 13.2914
lhand -40.1045 -728.619
lfingers 7.12502
lthumb -13.0685 20.9516
rfemur -42.0166 -41.8909 23.0789
rtibia 92.3793
rfoot 396.292 2.00814
rtoes 12.4439
lfemur -53.9146 48.7182 -37.1464
ltibia 129.37
lfoot 19.461 -5.31394
ltoes 6.72611
233
root 20.7505 1.4482 0.030787 -1264.08 258.876 92.0391
lowerback 54.8782 0.0679458 9.96821
upperback 17.4285 1.91663 -1.60058
thorax -0.996571 0.0369048 -6.88555
lowerneck 12.6991 17.4398 4.6058
upperneck 8.36867 23.5744 -8.5317
head 2.15823 11.6379 -3.36258
rclavicle 6.75868e-014 2.8625e-014
rhumerus -361.739 37.4084 278.644
rradius 74.2991
rwrist -6.63617
rhand -9.83492 739.884
rfingers 7.12502
rthumb 16.1426 710.537
lclavicle 6.75868e-014 2.8625e-014
lhumerus -387.88 -6.69775 -274.621
lradius 91.1941
lwrist 12.6981
lhand -39.5208 -728.532
lfingers 7.12502
lthumb -12.5058 21.0737
rfemur -40.3934 -41.114 22.1072
rtibia 90.823
rfoot 395.685 2.89938
rtoes 11.4477
lfemur -53.3369 47.9411 -36.8017
ltibia 128.909
lfoot 20.5509 -5.24395
ltoes 7.03128
234
root 20.7788 1.44574 0.0269247 -1265.13 259.022 92.4908
lowerback 54.4218 0.116009 9.58417
upperback 17.5614 1.72431 -1.68774
thorax -0.870937 -0.0692209 -6.75045
lowerneck 12.862 17.4261 4.70323
upperneck 8.4154 23.5723 -8.6217
head 2.16966 11.6376 -3.41022
rclavicle 3.97569e-015 -3.81667e-014
rhumerus -362.861 37.1501 277.68
rradius 74.7454
rwrist -6.80886
rhand -9.79571 739.888
rfingers 7.12502
rthumb 16.1804 710.543
lclavicle 3.97569e-015 -3.81667e-014
lhumerus -386.14 -6.34772 -274.412
lradius 91.2842
lwrist 12.2686
lhand -39.0305 -728.237
lfingers 7.12502
lthumb -12.0331 21.3975
rfemur -38.8339 -40.3079 21.1524
rtibia 89.2687
rfoot 395.051 3.80407
rtoes 10.3093
lfemur -52.8342 47.221 -36.5219
ltibia 128.486
lfoot 21.4636 -5.27843
ltoes 7.20625
235
root 20.8049 1.44364 0.021895 -1265.94 259.16 92.6744
lowerback 53.9693 0.1406 9.24821
upperback 17.6976 1.5315 -1.78507
thorax -0.734425 -0.17298 -6.64672
lowerneck 12.9823 17.3959 4.85874
upperneck 8.5368 23.5617 -8.70422
head 2.2147 11.6317 -3.45462
rclavicle 4.77083e-015 0
rhumerus -363.985 36.9176 276.692
rradius 75.2072
rwrist -7.07664
rhand -9.77836 739.852
rfingers 7.12502
rthumb 16.1971 710.509
lclavicle 4.77083e-015 0
lhumerus -384.475 -6.18026 -274.189
lradius 91.4794
lwrist 12.0568
lhand -38.696 -727.797
lfingers 7.12502
lthumb -11.7105 21.8561
rfemur -37.2242 -39.4728 20.2784
rtibia 87.6855
rfoot 394.343 4.79451
rtoes 8.97928
lfemur -52.2761 46.5809 -36.1178
ltibia 128.086
lfoot 22.2633 -5.40486
ltoes 7.22363
236
root 20.829 1.44181 0.0176106 -1266.76 259.301 92.8748
lowerback 53.4803 0.17587 8.90515
upperback 17.8318 1.35319 -1.87317
thorax -0.592559 -0.270025 -6.535
lowerneck 13.0677 17.3424 4.97689
upperneck 8.66866 23.516 -8.76463
head 2.2585 11.6067 -3.48668
rclavicle -2.06736e-014 5.08889e-014
rhumerus -365.114 36.7071 275.714
rradius 75.6572
rwrist -7.33236
rhand -9.86532 739.855
rfingers 7.12502
rthumb 16.1133 710.505
lclavicle -2.06736e-014 5.08889e-014
lhumerus -382.889 -6.14067 -273.907
lradius 91.7912
lwrist 12.1463
lhand -38.4505 -727.238
lfingers 7.12502
lthumb -11.4738 22.4277
rfemur -35.6612 -38.6177 19.4494
rtibia 86.1121
rfoot 393.594 5.68896
rtoes 7.97302
lfemur -51.7719 45.9275 -35.7631
ltibia 127.703
lfoot 22.9418 -5.49236
ltoes 7.17043
237
root 20.8505 1.43877 0.0130892 -1267.5 259.427 92.9733
lowerback 53.0409 0.182499 8.59197
upperback 17.9315 1.16571 -1.97509
thorax -0.489142 -0.370791 -6.44613
lowerneck 13.0837 17.2899 5.07255
upperneck 8.90485 23.472 -8.73184
head 2.33107 11.5775 -3.48
rclavicle 3.26007e-014 -2.54444e-014
rhumerus -366.227 36.5296 274.707
rradius 76.0631
rwrist -7.66196
rhand -9.97363 739.816
rfingers 7.12502
rthumb 16.009 710.457
lclavicle 3.26007e-014 -2.54444e-014
lhumerus -381.443 -6.25618 -273.621
lradius 92.2312
lwrist 12.5696
lhand -38.3758 -726.737
lfingers 7.12502
lthumb -11.4018 22.9331
rfemur -34.074 -37.7501 18.6638
rtibia 84.5257
rfoot 392.824 6.30142
rtoes 7.32162
lfemur -51.2537 45.3008 -35.3652
ltibia 127.356
lfoot 23.4386 -5.58474
ltoes 6.66669
238
root 20.8701 1.43635 0.00818789 -1268.06 259.581 92.9114
lowerback 52.5385 0.212013 8.27861
upperback 18.0488 1.00714 -2.05174
thorax -0.353413 -0.457954 -6.34107
lowerneck 13.0855 17.2312 5.08701
upperneck 9.11366 23.4062 -8.68566
head 2.38529 11.5356 -3.46198
rclavicle -4.77083e-015 3.81667e-014
rhumerus -367.364 36.3601 273.688
rradius 76.4733
rwrist -8.06827
rhand -10.1682 739.852
rfingers 7.12502
rthumb 15.8217 710.479
lclavicle -4.77083e-015 3.81667e-014
lhumerus -380.1 -6.46644 -273.269
lradius 92.8125
lwrist 13.2796
lhand -38.3782 -726.217
lfingers 7.12502
lthumb -11.404 23.4532
rfemur -32.5351 -36.8184 17.9889
rtibia 82.9367
rfoot 392.043 6.72341
rtoes 6.85761
lfemur -50.7659 44.7323 -34.9243
ltibia 127.04
lfoot 23.7534 -5.62111
ltoes 5.89619
239
root 20.8883 1.43422 0.00349786 -1268.54 259.728 92.7548
lowerback 52.0554 0.213209 7.99595
upperback 18.149 0.834907 -2.15108
thorax -0.234969 -0.549129 -6.26839
lowerneck 13.0925 17.1754 5.10171
upperneck 9.32682 23.3436 -8.62251
head 2.43851 11.4954 -3.43969
rclavicle -4.13472e-014 7.63333e-014
rhumerus -368.499 36.2082 272.606
rradius 76.8439
rwrist -8.46421
rhand -10.4575 739.906
rfingers 7.12502
rthumb 15.543 710.51
lclavicle -4.13472e-014 7.63333e-014
lhumerus -378.877 -6.7476 -272.938
lradius 93.4558
lwrist 14.1246
lhand -38.4709 -725.805
lfingers 7.12502
lthumb -11.4935 23.86
rfemur -30.9891 -35.8879 17.3531
rtibia 81.3464
rfoot 391.244 7.12992
rtoes 6.05992
lfemur -50.2346 44.1861 -34.4262
ltibia 126.754
lfoot 23.8497 -5.58354
ltoes 5.11995
240
root 20.9052 1.43087 -0.00144226 -1268.99 259.862 92.5745
lowerback 51.5881 0.210026 7.73357
upperback 18.2339 0.675442 -2.24036
thorax -0.129139 -0.633497 -6.19758
lowerneck 13.0839 17.1051 5.06869
upperneck 9.54259 23.2545 -8.5433
head 2.48573 11.4402 -3.40741
rclavicle -6.36111e-015 1.08139e-013
rhumerus -369.548 36.0922 271.616
rradius 77.1694
rwrist -8.98513
rhand -10.8769 739.961
rfingers 7.12502
rthumb 15.1391 710.535
lclavicle -6.36111e-015 1.08139e-013
lhumerus -377.798 -7.13306 -272.577
lradius 94.1725
lwrist 15.0378
lhand -38.6231 -725.564
lfingers 7.12502
lthumb -11.6402 24.0923
rfemur -29.4653 -34.9532 16.7632
rtibia 79.7589
rfoot 390.459 7.43993
rtoes 5.2551
lfemur -49.7173 43.6518 -33.9192
ltibia 126.492
lfoot 23.8932 -5.47611
ltoes 4.60775
241
root 20.9213 1.4275 -0.006592 -1269.38 260.026 92.3149
lowerback 51.1123 0.221522 7.44833
upperback 18.3208 0.524099 -2.32117
thorax -0.0172812 -0.717378 -6.10975
lowerneck 13.0392 17.0668 4.92523
upperneck 9.7461 23.1891 -8.40127
head 2.51756 11.3929 -3.34273
rclavicle -3.18055e-014 5.08889e-014
rhumerus -370.531 36.0531 270.695
rradius 77.5048
rwrist -9.61824
rhand -11.3057 740.061
rfingers 7.12502
rthumb 14.726 710.604
lclavicle -3.18055e-014 5.08889e-014
lhumerus -376.837 -7.5528 -272.265
lradius 94.966
lwrist 15.9072
lhand -38.7804 -725.344
lfingers 7.12502
lthumb -11.7919 24.3042
rfemur -27.9422 -33.9591 16.2147
rtibia 78.164
rfoot 389.729 7.50271
rtoes 4.91564
lfemur -49.1474 43.1957 -33.342
ltibia 126.253
lfoot 23.9559 -5.31581
ltoes 4.96278
242
root 20.938 1.42457 -0.0116894 -1269.65 260.184 91.9496
lowerback 50.6317 0.215901 7.19208
upperback 18.3953 0.371068 -2.41303
thorax 0.0856177 -0.798844 -6.04601
lowerneck 13.0672 17.0334 4.73128
upperneck 9.86465 23.1163 -8.25985
head 2.50741 11.3443 -3.28363
rclavicle -4.92986e-014 9.22361e-014
rhumerus -371.513 36.0003 269.711
rradius 77.8265
rwrist -10.2766
rhand -11.7481 740.142
rfingers 7.12502
rthumb 14.2997 710.655
lclavicle -4.92986e-014 9.22361e-014
lhumerus -375.868 -7.94983 -271.974
lradius 95.5571
lwrist 16.6518
lhand -38.8128 -725.339
lfingers 7.12502
lthumb -11.8232 24.307
rfemur -26.4359 -32.9586 15.7177
rtibia 76.5674
rfoot 389.018 7.45098
rtoes 4.7241
lfemur -48.5906 42.7641 -32.7524
ltibia 126.023
lfoot 24.1036 -5.15091
ltoes 5.80213
243
root 20.9549 1.42118 -0.0167035 -1270.11 260.351 91.7692
lowerback 50.1482 0.229942 6.90411
upperback 18.4626 0.232037 -2.49965
thorax 0.184195 -0.875928 -5.96635
lowerneck 13.1372 16.9937 4.53174
upperneck 9.94294 23.0319 -8.12943
head 2.47896 11.2918 -3.23283
rclavicle -4.77083e-015 -8.5875e-014
rhumerus -372.489 35.9385 268.75
rradius 78.1296
rwrist -10.8544
rhand -12.1825 740.325
rfingers 7.12502
rthumb 13.8812 710.808
lclavicle -4.77083e-015 -8.5875e-014
lhumerus -374.86 -8.33934 -271.668
lradius 95.9109
lwrist 17.1706
lhand -38.6393 -725.538
lfingers 7.12502
lthumb -11.6559 24.118
rfemur -24.9507 -31.9197 15.2124
rtibia 74.9808
rfoot 388.389 7.23046
rtoes 4.85363
lfemur -48.0429 42.3661 -32.1963
ltibia 125.803
lfoot 24.229 -4.95598
ltoes 6.53223
244
root 20.9716 1.41826 -0.0220687 -1270.37 260.532 91.3898
lowerback 49.6495 0.240148 6.6358
upperback 18.5136 0.103599 -2.58582
thorax 0.271812 -0.945609 -5.89842
lowerneck 13.1438 16.9567 4.22699
upperneck 10.0627 22.9342 -7.88484
head 2.44787 11.2277 -3.1322
rclavicle -3.49861e-014 4.13472e-014
rhumerus -373.478 35.8548 267.742
rradius 78.4358
rwrist -11.348
rhand -12.5639 740.556
rfingers 7.12502
rthumb 13.5136 711.014
lclavicle -3.49861e-014 4.13472e-014
lhumerus -373.966 -8.75735 -271.416
lradius 96.3435
lwrist 17.5363
lhand -38.2182 -725.854
lfingers 7.12502
lthumb -11.2497 23.8247
rfemur -23.4948 -30.8512 14.7984
rtibia 73.3944
rfoot 387.821 6.96934
rtoes 5.04597
lfemur -47.4921 42.0107 -31.569
ltibia 125.596
lfoot 24.4201 -4.7145
ltoes 7.22337
245
root 20.9888 1.41478 -0.0275083 -1270.49 260.708 90.8761
lowerback 49.1373 0.240186 6.39361
upperback 18.5761 -0.0239214 -2.67508
thorax 0.378818 -1.01294 -5.84652
lowerneck 13.1025 16.8991 3.96372
upperneck 10.075 22.7845 -7.42063
head 2.65241 11.1591 -3.24313
rclavicle -4.77083e-015 3.02153e-014
rhumerus -374.41 35.7289 266.761
rradius 78.7319
rwrist -11.7206
rhand -12.896 740.825
rfingers 7.12502
rthumb 13.1935 711.262
lclavicle -4.77083e-015 3.02153e-014
lhumerus -373.157 -9.20244 -271.236
lradius 96.9033
lwrist 17.8128
lhand -37.5099 -726.21
lfingers 7.12502
lthumb -10.5665 23.5041
rfemur -22.0532 -29.7886 14.4375
rtibia 71.8243
rfoot 387.323 6.71713
rtoes 5.18671
lfemur -46.9323 41.6839 -30.9013
ltibia 125.389
lfoot 24.6347 -4.51032
ltoes 7.69412
